<svg width="60" height="60" viewBox="0 0 60 60" fill="none" xmlns="http://www.w3.org/2000/svg">
    <path d="M30 54C43.2548 54 54 43.2548 54 30C54 16.7452 43.2548 6 30 6C16.7452 6 6 16.7452 6 30C6 43.2548 16.7452 54 30 54Z" fill="#E95454" />
    <path fill-rule="evenodd" clip-rule="evenodd" d="M22.5755 38.4855C23.1613 39.0713 24.111 39.0713 24.6968 38.4855L30 33.1823L35.3032 38.4855C35.889 39.0713 36.8387 39.0713 37.4245 38.4855L38.4852 37.4248C39.071 36.839 39.071 35.8893 38.4852 35.3035L33.182 30.0003L38.4854 24.6969C39.0712 24.1112 39.0712 23.1614 38.4854 22.5756L37.4248 21.515C36.839 20.9292 35.8892 20.9292 35.3034 21.515L30 26.8184L24.6966 21.5149C24.1108 20.9291 23.1611 20.9291 22.5753 21.5149L21.5146 22.5756C20.9288 23.1614 20.9288 24.1111 21.5146 24.6969L26.818 30.0003L21.5149 35.3035C20.9291 35.8893 20.9291 36.8391 21.5149 37.4249L22.5755 38.4855Z" fill="white" />
</svg>