<svg width="32" height="32" viewBox="0 0 32 32" fill="none" xmlns="http://www.w3.org/2000/svg">
    <path d="M27.5999 16C27.5999 22.4065 22.4065 27.6 16 27.6C9.59345 27.6 4.39995 22.4065 4.39995 16C4.39995 9.59351 9.59345 4.40001 16 4.40001C22.4065 4.40001 27.5999 9.59351 27.5999 16Z" stroke="#C2D3FF" stroke-width="2.4" />
    <mask id="path-2-inside-1_9295_49253" fill="white">
        <path d="M16 3.20001C14.319 3.20001 12.6546 3.53109 11.1016 4.17435C9.54864 4.81761 8.13757 5.76046 6.94898 6.94905C5.76039 8.13764 4.81755 9.5487 4.17429 11.1017C3.53103 12.6546 3.19995 14.3191 3.19995 16H5.6064C5.6064 14.6351 5.87524 13.2836 6.39756 12.0226C6.91989 10.7616 7.68547 9.6158 8.6506 8.65066C9.61573 7.68553 10.7615 6.91995 12.0225 6.39763C13.2835 5.8753 14.6351 5.60646 16 5.60646V3.20001Z" />
    </mask>
    <path d="M16 3.20001C14.319 3.20001 12.6546 3.53109 11.1016 4.17435C9.54864 4.81761 8.13757 5.76046 6.94898 6.94905C5.76039 8.13764 4.81755 9.5487 4.17429 11.1017C3.53103 12.6546 3.19995 14.3191 3.19995 16H5.6064C5.6064 14.6351 5.87524 13.2836 6.39756 12.0226C6.91989 10.7616 7.68547 9.6158 8.6506 8.65066C9.61573 7.68553 10.7615 6.91995 12.0225 6.39763C13.2835 5.8753 14.6351 5.60646 16 5.60646V3.20001Z" stroke="#5B89FE" stroke-width="4.8" mask="url(#path-2-inside-1_9295_49253)" />
</svg>