<svg width="61" height="20" viewBox="0 0 61 20" fill="none" xmlns="http://www.w3.org/2000/svg">
    <path d="M0 10C0 15.5228 4.47715 20 10 20H51C56.5229 20 61 15.5228 61 10C61 4.47715 56.5229 0 51 0H10C4.47715 0 0 4.47715 0 10Z" fill="#FFAA00" />
    <path d="M12.484 12.464L13.312 11.636C12.88 10.964 12.46 10.352 12.052 9.8C12.328 8.816 12.556 7.736 12.736 6.536L11.584 6.332C11.476 7.124 11.332 7.892 11.164 8.612C10.756 8.084 10.372 7.628 10.012 7.244L9.304 7.928V5.732H16.696V12.116C16.264 11.396 15.844 10.724 15.436 10.112C15.772 9.056 16.048 7.868 16.252 6.572L15.076 6.368C14.944 7.244 14.776 8.072 14.572 8.852C14.164 8.276 13.78 7.796 13.432 7.388L12.664 8.132C13.18 8.804 13.684 9.488 14.164 10.196C13.756 11.324 13.252 12.308 12.652 13.172L13.444 14.156C14.02 13.388 14.524 12.488 14.956 11.432C15.292 11.96 15.604 12.5 15.916 13.052L16.696 12.272V13.628C16.696 13.892 16.552 14.024 16.276 14.024L15.172 13.964L15.484 15.176H16.684C17.512 15.176 17.932 14.756 17.932 13.916V4.532H8.068V15.26H9.304V8.06C9.808 8.672 10.312 9.308 10.792 9.956C10.432 11.06 9.976 12.044 9.424 12.884L10.216 13.868C10.756 13.1 11.224 12.188 11.62 11.132C11.908 11.564 12.196 12.008 12.484 12.464ZM28.888 6.656H25.432C25.516 6.344 25.588 6.032 25.648 5.696H30.328V4.52H19.672V5.696H24.292C24.244 6.032 24.184 6.344 24.112 6.656H21.064V12.536H22.324V7.88H27.628V12.536H28.888V6.656ZM25.912 12.344L25.216 13.388C26.62 13.844 27.988 14.468 29.32 15.284L30.1 14.096C28.84 13.4 27.448 12.824 25.912 12.344ZM24.364 8.396V10.304C24.292 11.288 23.956 12.092 23.356 12.704C22.744 13.268 21.556 13.748 19.804 14.132L20.524 15.248C22.276 14.84 23.548 14.276 24.316 13.532C25.12 12.728 25.564 11.648 25.636 10.304V8.396H24.364ZM35.644 12.5C35.116 13.316 33.748 13.844 31.564 14.072L32.08 15.212C34.756 14.852 36.388 13.94 36.964 12.5H40.3C40.3 12.86 40.264 13.196 40.216 13.508C40.144 13.82 39.892 13.976 39.46 13.988C39.004 13.988 38.5 13.952 37.948 13.88L38.272 15.044C38.608 15.08 39.016 15.104 39.52 15.104C40.312 15.104 40.852 14.888 41.152 14.456C41.44 14.024 41.596 13.028 41.596 11.444H32.128V12.5H35.644ZM33.676 8.648H36.016V9.02H33.676V8.648ZM36.016 7.856H33.676V7.484H36.016V7.856ZM33.676 9.836H36.016V9.896C36.016 10.088 35.848 10.184 35.524 10.184L34.816 10.148L35.08 11.108H35.848C36.76 11.108 37.216 10.784 37.216 10.148V6.572H32.476V11.108H33.676V9.836ZM35.428 4.04L34.168 4.256C34.348 4.508 34.516 4.772 34.672 5.06H31.636V6.14H42.364V5.06H39.52C39.736 4.796 39.904 4.52 40.024 4.232L38.764 4.064C38.656 4.4 38.5 4.736 38.284 5.06H35.896C35.74 4.688 35.584 4.352 35.428 4.04ZM40.252 11.084C41.08 11.084 41.5 10.652 41.5 9.788V6.548H40.276V9.5C40.276 9.872 40.132 10.064 39.868 10.064C39.46 10.064 39.04 10.04 38.608 10.004L38.86 11.084H40.252ZM38.116 6.836V9.704H39.28V6.836H38.116ZM47.692 8.78C47.284 8.996 46.864 9.188 46.456 9.38V7.412H47.668V6.224H46.456V4.184H45.22V6.224H43.624V7.412H45.22V9.86C44.62 10.064 44.008 10.232 43.384 10.364L43.696 11.6C44.2 11.444 44.716 11.276 45.22 11.084V13.664C45.22 13.952 45.076 14.096 44.812 14.096C44.5 14.096 44.176 14.06 43.828 14.012L44.116 15.212H45.256C46.048 15.212 46.456 14.792 46.456 13.976V10.592C46.864 10.412 47.284 10.22 47.692 10.028V8.78ZM49.312 9.956H49.768C49.948 11.036 50.416 12.044 51.16 12.98C50.704 13.46 50.14 13.868 49.468 14.192L50.068 15.296C50.812 14.936 51.46 14.48 52.012 13.916C52.516 14.396 53.104 14.852 53.788 15.284L54.628 14.312C53.896 13.916 53.26 13.484 52.72 13.016C53.284 12.152 53.656 11.108 53.836 9.896V8.816H49.312V5.66H52.564C52.54 6.26 52.48 6.632 52.408 6.788C52.336 6.908 52.228 6.98 52.108 7.016C51.964 7.04 51.76 7.052 51.484 7.052C51.208 7.052 50.98 7.04 50.8 7.04L51.136 8.108H52.048C52.864 8.108 53.356 7.88 53.524 7.424C53.68 6.944 53.764 5.972 53.764 4.532H48.124V15.26H49.312V9.956ZM50.872 9.956H52.66C52.492 10.748 52.216 11.456 51.844 12.08C51.352 11.432 51.028 10.724 50.872 9.956Z" fill="white" />
</svg>