<svg width="101" height="94" viewBox="0 0 101 94" fill="none" xmlns="http://www.w3.org/2000/svg">
    <path d="M21.5108 8.53831C21.5108 4.09881 25.1082 0.499878 29.5493 0.499878H70.6341C75.0736 0.499878 78.6725 4.09725 78.6725 8.53831V49.6231C78.6725 54.0626 75.0752 57.6616 70.6341 57.6616H29.5493C25.1098 57.6616 21.5108 54.0642 21.5108 49.6231V8.53831Z" fill="url(#paint0_linear_7517_38768)" />
    <g filter="url(#filter0_d_7517_38768)">
        <path fill-rule="evenodd" clip-rule="evenodd" d="M55.5157 13.2621L65.3665 23.1129C65.3665 23.1129 67.4625 24.8846 65.5718 26.7753C63.681 28.6661 54.3019 38.0452 53.2606 39.0865C52.2193 40.1278 52.0051 40.1694 51.0996 40.3345C50.194 40.4996 39.286 41.4542 39.286 41.4542C39.286 41.4542 36.7458 41.9612 37.0349 39.2031C37.3241 36.445 38.421 27.3364 38.421 27.3364C38.421 27.3364 38.2118 26.494 39.3228 25.383C40.4338 24.2719 49.4458 15.26 51.5648 13.1409C53.6838 11.0219 55.5157 13.2621 55.5157 13.2621Z" fill="white" />
        <path fill-rule="evenodd" clip-rule="evenodd" d="M37.6139 40.8751C37.7869 40.7022 60.3731 18.1159 60.3731 18.1159L65.3799 23.1227C65.3799 23.1227 67.476 24.8944 65.5853 26.7851C63.6945 28.6759 54.3154 38.055 53.2741 39.0963C52.2328 40.1376 52.0186 40.1792 51.1131 40.3443C50.2075 40.5095 39.2995 41.464 39.2995 41.464C39.2995 41.464 38.1817 41.6871 37.5135 41.0322C37.4988 41.0179 37.4409 41.0481 37.6139 40.8751Z" fill="#EBF4FF" />
    </g>
    <path d="M0.95993 77.1749H19.0458V78.7214H0.95993V77.1749Z" fill="#333333" />
    <path d="M4.8251 84.77H16.1652V86.3164H4.8251V84.77Z" fill="#333333" />
    <path d="M28.0141 82.93H37.5495V84.4764H28.0141V82.93Z" fill="#333333" />
    <path d="M28.0141 86.1501H37.5495V87.6966H28.0141V86.1501Z" fill="#333333" />
    <path d="M4.8251 88.4536H16.1652V90.0001H4.8251V88.4536Z" fill="#333333" />
    <path fill-rule="evenodd" clip-rule="evenodd" d="M7.35884 74.5486C7.31672 74.6661 7.26812 74.7998 7.20656 74.9532C7.03808 75.3903 6.8372 75.883 6.60067 76.4115C5.92135 77.9475 5.12404 79.4277 4.216 80.8388C3.16078 82.5339 1.83001 84.0382 0.279358 85.2889L1.19953 86.5221C2.89065 85.1624 4.34107 83.5243 5.48934 81.6773C6.44404 80.1984 7.28148 78.6461 7.99389 77.0347C8.24013 76.48 8.45073 75.9678 8.6419 75.5045C8.7067 75.3414 8.76178 75.1783 8.80714 75.0706C8.8525 74.963 8.8525 74.9401 8.86222 74.9075L7.4204 74.4018L7.35884 74.5486Z" fill="#333333" />
    <path fill-rule="evenodd" clip-rule="evenodd" d="M16.1978 80.8582H4.59848V93.8431H6.12454V82.4047H15.4364V92.2445C15.4443 92.3139 15.4443 92.3839 15.4364 92.4533H11.503V93.9997H15.5239C16.1861 94.013 16.763 93.5475 16.8944 92.8937C16.9571 92.6523 16.9801 92.4021 16.9625 92.1531V80.8582H16.1978Z" fill="#333333" />
    <path fill-rule="evenodd" clip-rule="evenodd" d="M28.4676 75.1488L29.8025 77.6642L31.1471 76.9302L29.8122 74.4147L28.4676 75.1488Z" fill="#333333" />
    <path fill-rule="evenodd" clip-rule="evenodd" d="M33.9239 77.015L35.2426 77.7915L36.733 75.1912L35.4143 74.4147L33.9239 77.015Z" fill="#333333" />
    <path d="M26.42 76.7148H38.9978V78.2613H26.42V76.7148Z" fill="#333333" />
    <path fill-rule="evenodd" clip-rule="evenodd" d="M30.9689 79.4913L32.4204 79.9708L33.2337 77.4228L31.7821 76.9465L30.9689 79.4913Z" fill="#333333" />
    <path fill-rule="evenodd" clip-rule="evenodd" d="M28.8565 88.8548V81.0247H36.7914V89.181H28.8565V88.8548ZM28.5002 79.488C28.4317 79.4873 28.3632 79.4938 28.2961 79.5076C28.1636 79.5319 28.0364 79.5794 27.9202 79.6479C27.5407 79.8705 27.3139 80.2858 27.3305 80.7278V89.5986C27.3278 90.0797 27.6406 90.505 28.0984 90.6426C28.256 90.7037 28.4223 90.739 28.5909 90.747H37.1543C37.5917 90.7596 37.996 90.5134 38.1879 90.1174C38.2446 90.0044 38.2839 89.8834 38.3045 89.7585C38.3086 89.6955 38.3086 89.6323 38.3045 89.5693V80.8778C38.3249 80.3726 38.062 79.8986 37.6241 79.6511C37.4928 79.5782 37.3505 79.5275 37.2029 79.501C37.1281 79.4867 37.0523 79.4791 36.9761 79.4782L28.5002 79.488Z" fill="#333333" />
    <path fill-rule="evenodd" clip-rule="evenodd" d="M21.8742 76.1211L23.8831 79.5664L25.1985 78.7801L23.1897 75.3348L21.8742 76.1211Z" fill="#333333" />
    <path fill-rule="evenodd" clip-rule="evenodd" d="M21.1938 82.4047H23.5915C23.5915 82.7309 23.5915 82.7962 23.5915 83.6379V89.7584C23.5918 89.9964 23.6168 90.2337 23.666 90.4664C23.7578 90.943 23.9334 91.3993 24.1844 91.8138C24.9588 93.0797 26.3747 93.8301 28.4775 93.8301H40.2971V92.2804H28.471C26.8834 92.2804 25.9632 91.7943 25.4772 90.9982C25.3191 90.7422 25.2093 90.4591 25.1532 90.163C25.1333 90.0684 25.1204 89.9724 25.1143 89.8759C25.112 89.8422 25.112 89.8084 25.1143 89.7747V82.31C25.1344 81.8162 24.8974 81.3476 24.489 81.0735C24.3606 80.9928 24.2207 80.9323 24.0742 80.8941C23.9989 80.8748 23.9218 80.8627 23.8442 80.8582H21.1938V82.4047Z" fill="#333333" />
    <path fill-rule="evenodd" clip-rule="evenodd" d="M21.4207 92.5872L22.5611 93.6181L25.1823 90.6329L24.0418 89.6019L21.4207 92.5872Z" fill="#333333" />
    <path d="M44.1527 76.0266H57.3785V77.5731H44.1527V76.0266Z" fill="#333333" />
    <path d="M41.8814 82.0099H59.397V83.5564H41.8814V82.0099Z" fill="#333333" />
    <path fill-rule="evenodd" clip-rule="evenodd" d="M43.5468 91.2724C43.4922 91.3507 43.4445 91.4336 43.4043 91.5203C43.2993 91.7355 43.2449 91.9722 43.2455 92.212C43.2455 93.1614 44.0879 93.579 45.3807 93.4518C46.1583 93.3767 48.2287 93.1647 51.2128 92.8547H51.2938L55.4669 92.4208L56.8407 92.2772L57.223 92.2348H57.3591L57.2004 90.6949H57.0643L56.682 90.7373L55.3114 90.8809L51.1383 91.3181H51.0573C48.0894 91.6443 46.019 91.8401 45.2479 91.9151C45.1409 91.9151 45.047 91.9151 44.9595 91.9151L50.4416 83.5402L49.1683 82.6854L43.5468 91.2724Z" fill="#333333" />
    <path fill-rule="evenodd" clip-rule="evenodd" d="M53.2475 86.806L58.1497 93.9412L59.4036 93.0538L54.4982 85.9219L53.2475 86.806Z" fill="#333333" />
    <path fill-rule="evenodd" clip-rule="evenodd" d="M64.4679 74.741L64.3771 75.0477C64.2735 75.374 64.1471 75.7557 63.9916 76.1602C63.547 77.3449 62.9813 78.4799 62.3035 79.5468C62.1674 79.7588 62.0281 79.9644 61.8856 80.1666L63.1233 81.0736C63.282 80.8485 63.4473 80.6234 63.5833 80.3885C64.3185 79.2319 64.9331 78.0019 65.4172 76.7181C65.5857 76.281 65.725 75.8731 65.8352 75.5077C65.9032 75.2826 65.9486 75.1195 65.9745 75.0281L64.4938 74.6464L64.4679 74.741Z" fill="#333333" />
    <path fill-rule="evenodd" clip-rule="evenodd" d="M73.1057 74.741C73.0831 74.8291 73.0507 74.9303 73.015 75.0477C72.9146 75.374 72.785 75.7557 72.6327 76.1602C72.1869 77.345 71.6201 78.48 70.9414 79.5468C70.8053 79.7588 70.666 79.9644 70.5234 80.1666L71.7611 81.0736C71.9199 80.8485 72.0851 80.6234 72.2245 80.3885C72.9573 79.2311 73.5707 78.0012 74.0551 76.7181C74.2236 76.281 74.3629 75.8731 74.473 75.5077C74.5443 75.2826 74.5897 75.1195 74.6124 75.0281L73.1317 74.6464L73.1057 74.741Z" fill="#333333" />
    <path d="M64.3866 76.4863H70.7468V78.0328H64.3866V76.4863Z" fill="#333333" />
    <path d="M73.4783 76.4863H80.6031V78.0328H73.4783V76.4863Z" fill="#333333" />
    <path fill-rule="evenodd" clip-rule="evenodd" d="M65.9775 77.3413L67.4226 80.6658L68.819 80.0426L67.374 76.7148L65.9775 77.3413Z" fill="#333333" />
    <path fill-rule="evenodd" clip-rule="evenodd" d="M75.0692 77.1519L76.3878 79.9511L77.7649 79.2823L76.4494 76.4863L75.0692 77.1519Z" fill="#333333" />
    <path fill-rule="evenodd" clip-rule="evenodd" d="M77.0908 80.6299C75.7203 80.8289 73.5268 81.0443 70.7792 81.2629C69.0328 81.3999 67.1633 81.5336 65.2906 81.6544L63.4794 81.7685L62.974 81.7979H62.7925L62.88 83.3444H63.0614L63.5701 83.315L65.3878 83.2008C67.267 83.0768 69.1462 82.9431 70.8958 82.806C73.6855 82.5842 75.892 82.3689 77.3046 82.1535C77.7941 82.0921 78.279 81.9984 78.7562 81.8729L78.3188 80.3885C77.9152 80.4961 77.505 80.5767 77.0908 80.6299Z" fill="#333333" />
    <path d="M61.6586 88.2604L80.3686 87.0767L80.4647 88.6201L61.7546 89.8038L61.6586 88.2604Z" fill="#333333" />
    <path fill-rule="evenodd" clip-rule="evenodd" d="M63.0227 84.9397L63.1264 86.4829L78.5457 85.3932L78.442 83.85L63.0227 84.9397Z" fill="#333333" />
    <path fill-rule="evenodd" clip-rule="evenodd" d="M69.6129 81.7783V92.0259C69.615 92.1233 69.6247 92.2204 69.642 92.3163C69.6782 92.5126 69.7449 92.702 69.8397 92.8774C70.1559 93.448 70.7663 93.7882 71.4143 93.7551H77.3209C77.5118 93.7521 77.7018 93.7291 77.8879 93.6865C78.297 93.6035 78.6878 93.4465 79.0414 93.2233C79.221 93.108 79.3901 92.977 79.5468 92.8318C79.8819 92.5166 80.1867 92.1703 80.4573 91.7975C80.577 91.6448 80.6852 91.4834 80.7813 91.3147L79.4302 90.5937C79.3716 90.6938 79.3078 90.7907 79.239 90.884C79.0237 91.1778 78.7819 91.4508 78.5165 91.6997C78.4336 91.7776 78.3435 91.8475 78.2476 91.9085C78.0483 92.0334 77.829 92.1228 77.5996 92.1727C77.53 92.1872 77.4597 92.198 77.389 92.2053H71.4143C71.2426 92.2053 71.207 92.1825 71.1778 92.127C71.1608 92.0943 71.1487 92.0591 71.1422 92.0226V81.7783H69.6129Z" fill="#333333" />
    <path fill-rule="evenodd" clip-rule="evenodd" d="M83.4803 76.2028L86.4449 79.1945L87.5238 78.0983L84.5592 75.1066L83.4803 76.2028Z" fill="#333333" />
    <path fill-rule="evenodd" clip-rule="evenodd" d="M89.4064 75.3348V76.8813H98.2161C98.2839 76.884 98.3512 76.8938 98.4169 76.9106V82.8452C98.3975 82.8452 98.3489 82.8452 98.2744 82.8452H90.8385C90.7677 82.8505 90.6974 82.8603 90.6279 82.8746C90.4828 82.904 90.3414 82.9499 90.2067 83.0116C89.7079 83.2131 89.3843 83.7037 89.3934 84.2448V92.2087C89.3964 92.3246 89.4138 92.4397 89.4453 92.5513C89.4965 92.7471 89.5809 92.9325 89.6948 93.0994C90.076 93.6242 90.6961 93.918 91.3407 93.8791H99.0747C99.1555 93.8724 99.2357 93.8593 99.3144 93.84C99.483 93.8039 99.6471 93.7492 99.8037 93.6769C100.36 93.4481 100.723 92.902 100.721 92.2968V88.708H99.1913V92.2544L99.1557 92.274C99.0924 92.3023 99.0261 92.3231 98.958 92.336H91.3407C91.088 92.336 90.9973 92.287 90.9487 92.2185C90.9357 92.1984 90.9258 92.1764 90.9195 92.1532V84.4047H98.2744C98.8368 84.4368 99.3754 84.1724 99.6968 83.7065C99.7955 83.5574 99.8668 83.3916 99.9074 83.2171C99.9281 83.1283 99.9401 83.0376 99.943 82.9464V76.7475C99.9488 76.1328 99.5277 75.5973 98.9321 75.4621C98.775 75.4114 98.6133 75.3765 98.4493 75.3577C98.3521 75.3577 98.2744 75.3577 98.2161 75.3577L89.4064 75.3348Z" fill="#333333" />
    <path fill-rule="evenodd" clip-rule="evenodd" d="M82.1161 80.3985V81.9449H84.4036H84.4522C84.4424 82.1406 84.4424 82.3366 84.4522 82.5322V92.0523V92.1078C84.4922 92.36 84.6049 92.5948 84.7762 92.7831C85.1942 93.266 85.8778 93.4356 86.7623 93.2464L88.0584 92.9593L88.3176 92.9006L88.3953 92.881L88.0713 91.3737L88 91.39L87.7408 91.4455L86.4448 91.7326C86.2937 91.7719 86.1368 91.784 85.9815 91.7685V81.9352C86.0011 81.3517 85.6718 80.8131 85.1456 80.5682C84.993 80.4941 84.8303 80.4435 84.6628 80.4181C84.5823 80.4064 84.5011 80.3999 84.4198 80.3985L82.1161 80.3985Z" fill="#333333" />
    <defs>
        <filter id="filter0_d_7517_38768" x="29.012" y="8.22955" width="45.3635" height="45.2711" filterUnits="userSpaceOnUse" color-interpolation-filters="sRGB">
            <feFlood flood-opacity="0" result="BackgroundImageFix" />
            <feColorMatrix in="SourceAlpha" type="matrix" values="0 0 0 0 0 0 0 0 0 0 0 0 0 0 0 0 0 0 127 0" result="hardAlpha" />
            <feOffset dy="4" />
            <feGaussianBlur stdDeviation="4" />
            <feColorMatrix type="matrix" values="0 0 0 0 0.12549 0 0 0 0 0.294118 0 0 0 0 0.643137 0 0 0 0.5 0" />
            <feBlend mode="normal" in2="BackgroundImageFix" result="effect1_dropShadow_7517_38768" />
            <feBlend mode="normal" in="SourceGraphic" in2="effect1_dropShadow_7517_38768" result="shape" />
        </filter>
        <linearGradient id="paint0_linear_7517_38768" x1="23.1809" y1="0.499878" x2="23.1809" y2="54.3214" gradientUnits="userSpaceOnUse">
            <stop stop-color="#3B9FFF" />
            <stop offset="1" stop-color="#397EFF" />
        </linearGradient>
    </defs>
</svg>