<svg width="60" height="60" viewBox="0 0 60 60" fill="none" xmlns="http://www.w3.org/2000/svg">
    <path d="M30 54C43.2548 54 54 43.2548 54 30C54 16.7452 43.2548 6 30 6C16.7452 6 6 16.7452 6 30C6 43.2548 16.7452 54 30 54Z" fill="#36BF84" />
    <path fill-rule="evenodd" clip-rule="evenodd" d="M26.9198 38.075C27.3133 38.0826 27.7091 37.9362 28.0094 37.6359L40.1009 25.5444C40.6867 24.9586 40.6867 24.0089 40.1009 23.4231L39.0403 22.3624C38.4545 21.7766 37.5047 21.7766 36.919 22.3624L26.8956 32.3857L23.0813 28.5714C22.4955 27.9856 21.5457 27.9856 20.96 28.5714L19.8993 29.632C19.3135 30.2178 19.3135 31.1676 19.8993 31.7534L25.7835 37.6376C26.0956 37.9497 26.5111 38.0955 26.9198 38.075Z" fill="white" />
</svg>