<svg width="28" height="28" viewBox="0 0 28 28" fill="none" xmlns="http://www.w3.org/2000/svg">
    <path d="M28 0H0V28H28V0Z" fill="white" fill-opacity="0.01" />
    <path d="M24.2 2H3.8C2.80589 2 2 2.80589 2 3.8V24.2C2 25.1941 2.80589 26 3.8 26H24.2C25.1941 26 26 25.1941 26 24.2V3.8C26 2.80589 25.1941 2 24.2 2Z" fill="#C0C8D6" />
    <path d="M6.34006 11.096V15.604C6.34006 17.55 7.20806 18.53 8.94406 18.53C9.84006 18.53 10.5961 18.152 11.2121 17.396V18.334H12.8081V11.096H11.2121V15.52C11.0721 16.038 10.8341 16.444 10.5121 16.752C10.1901 17.046 9.85406 17.2 9.50406 17.2C8.94406 17.2 8.55206 17.06 8.30006 16.794C8.04806 16.514 7.93606 16.094 7.93606 15.506V11.096H6.34006ZM17.9045 10.9C17.4565 10.9 17.0785 11.026 16.7565 11.292C16.4905 11.488 16.2665 11.768 16.0705 12.132V11.096H14.4885V18.334H16.0705V14.498C16.0705 13.882 16.2525 13.392 16.6445 13.014C16.9805 12.678 17.3585 12.524 17.7785 12.524C18.1145 12.524 18.4505 12.566 18.8145 12.678V11.082C18.5625 10.956 18.2545 10.9 17.9045 10.9ZM19.8648 8.14204V18.334H21.4608V8.14204H19.8648Z" fill="#F9FAFB" />
</svg>